<?xml version="1.0" standalone="no"?><!DOCTYPE svg PUBLIC "-//W3C//DTD SVG 1.1//EN" "http://www.w3.org/Graphics/SVG/1.1/DTD/svg11.dtd"><svg t="1526571178369" class="icon" style="" viewBox="0 0 1024 1024" version="1.1" xmlns="http://www.w3.org/2000/svg" p-id="3024" xmlns:xlink="http://www.w3.org/1999/xlink" width="16" height="16"><defs><style type="text/css">:not(i):not(span):not(em):not(button):not(a) { font-family: "Microsoft Yahei" !important; }
</style></defs><path d="M804.524544 530.317312l0-274.26816q0-14.856192-10.856448-25.71264t-25.71264-10.856448l-274.26816 0q-23.998464 0-33.712128 22.284288-9.713664 23.427072 7.999488 39.99744l82.280448 82.280448-305.123328 305.123328q-10.856448 10.856448-10.856448 25.71264t10.856448 25.71264l58.281984 58.281984q10.856448 10.856448 25.71264 10.856448t25.71264-10.856448l305.123328-305.123328 82.280448 82.280448q10.285056 10.856448 25.71264 10.856448 6.856704 0 14.2848-2.85696 22.284288-9.713664 22.284288-33.712128zm146.276352-292.552704l0 548.53632q0 67.995648-48.282624 116.278272t-116.278272 48.282624l-548.53632 0q-67.995648 0-116.278272-48.282624t-48.282624-116.278272l0-548.53632q0-67.995648 48.282624-116.278272t116.278272-48.282624l548.53632 0q67.995648 0 116.278272 48.282624t48.282624 116.278272z" p-id="3025" fill="#ffffff"></path></svg>